<svg width="310" height="251" viewBox="0 0 310 251" fill="none" xmlns="http://www.w3.org/2000/svg">
<path d="M108.573 329.098C109.451 326.026 110.593 322.698 111.924 319.171L116.163 329.536H133.6L124.913 288C137.022 258.98 148.916 225.039 138.464 196.936C134.9 183.053 133.062 171.95 132.368 163.2C132.624 163.456 132.834 163.635 132.972 163.599C133.917 163.356 135.153 163.379 134.337 160.614C134.004 159.48 133.001 157.875 133.013 157.724C133.057 157.187 135.671 162.542 135.811 162.657C138.295 164.721 138.991 163.267 138.604 161.155C139.004 162.109 139.413 162.947 139.938 163.459C141.538 164.995 142.839 163.164 141.986 160.41C139.836 153.523 135.786 151.946 132.12 151.754C132.486 143.997 134.076 139.313 135.896 136.993C137.432 135.025 144.687 127.119 146.392 124.943C146.392 124.943 144.464 122.575 142.04 119.657C146.825 111.296 151.381 102.559 152.211 100.805C153.547 97.9763 157.436 91.4202 160.861 85.7011C165.502 77.9469 168.797 70.6099 173.239 62.9171C175.998 58.1299 176.096 48.768 174.744 43.0362C172.588 33.897 169.726 34.8314 169.442 34.2067V34.1914C168.393 30.2515 167.369 26.4295 167.138 25.513C165.766 19.968 163.395 19.7939 160.866 20.2445C158.721 20.6259 157.039 21.0125 154.993 21.2122C152.003 21.4861 150.368 22.2362 151.466 26.5498C152.4 30.2387 155.05 39.9053 156.256 43.7658C156.796 45.4989 156.944 45.6269 157.024 46.3258C157.392 47.5418 157.968 48.4378 158.772 49.0112C159.489 50.089 160.874 51.6967 163.621 54.4154C165.361 56.1408 166.091 59.1616 161.184 66.4755C155.201 75.3946 146.592 87.9207 144.971 91.3664C143.875 93.6858 136.992 103.526 132.76 109.13C132.709 109.087 132.66 109.046 132.617 109.015C131.93 108.49 127.107 118.231 120.137 118.62C119.437 118.665 118.74 118.75 118.05 118.876L118.019 118.758L117.981 118.615L117.866 118.182C117.85 118.126 117.835 118.07 117.822 118.016L117.745 117.724L117.699 117.545L117.63 117.263C117.615 117.202 117.597 117.138 117.582 117.074C117.566 117.01 117.538 116.89 117.515 116.797L117.469 116.605C117.446 116.513 117.426 116.419 117.402 116.326C117.379 116.234 117.374 116.204 117.359 116.142C117.336 116.04 117.315 115.94 117.292 115.84C117.292 115.786 117.267 115.733 117.257 115.681C117.231 115.558 117.203 115.441 117.18 115.32L117.157 115.221L117.065 114.765C117.065 114.734 117.065 114.703 117.047 114.67C117.024 114.555 117.001 114.437 116.98 114.322C116.98 114.271 116.962 114.225 116.952 114.173C116.937 114.079 116.919 113.981 116.903 113.884C116.903 113.833 116.885 113.779 116.875 113.725C116.865 113.672 116.847 113.549 116.834 113.469C116.821 113.39 116.816 113.362 116.809 113.308C116.801 113.254 116.786 113.139 116.775 113.052C116.765 112.965 116.76 112.95 116.755 112.901C116.75 112.853 116.734 112.732 116.724 112.645L116.709 112.509C116.709 112.417 116.701 112.328 116.686 112.241V112.143C116.686 112.023 116.668 111.908 116.665 111.795C116.666 111.782 116.666 111.77 116.665 111.757C116.665 111.66 116.665 111.565 116.665 111.475C116.665 111.442 116.665 111.409 116.665 111.375C116.665 111.342 116.665 111.242 116.665 111.181C116.665 111.119 116.665 111.109 116.665 111.073L116.681 110.912L116.696 110.81C116.696 110.761 116.711 110.715 116.721 110.669C116.732 110.623 116.734 110.61 116.739 110.582C116.745 110.554 116.765 110.497 116.778 110.459C116.785 110.434 116.793 110.409 116.803 110.385C116.818 110.347 116.836 110.31 116.855 110.275C116.855 110.257 116.873 110.239 116.883 110.223C116.91 110.177 116.942 110.135 116.98 110.098C120.526 106.642 120.892 100.306 119.435 94.4487C123.948 93.4528 122.663 83.8195 122.663 83.8195L117.679 85.9136C115.749 69.3837 98.5097 69.696 93.0646 81.2109C89.2246 89.344 85.0057 107.018 65.2911 122.071C64.4438 122.719 73.4473 127.885 83.1522 133.141C79.3122 139.251 77.2489 147.607 74.7503 158.17L75.6668 158.077C75.3724 159.007 75.0396 160.092 74.7094 161.275C68.7881 173.251 59.7615 197.591 56.4796 208.678C49.9823 215.721 38.0271 258.463 37.5228 262.825C37.3282 264.52 52.7676 268.713 54.278 269.404C60.8879 272.476 80.5257 277.34 87.5375 279.78C87.8601 279.893 89.222 276.004 90.9577 270.538C91.6361 271.818 92.2889 273.016 92.9058 274.158L93.0594 274.447C94.2754 276.7 95.343 278.671 96.157 280.236L96.2057 280.325C96.5385 280.965 96.8252 281.532 97.0658 282.025C97.1145 282.125 97.1631 282.222 97.2066 282.314C97.2501 282.406 97.3218 282.57 97.373 282.67L97.4626 282.867C97.5676 283.103 97.6546 283.313 97.7186 283.484L89.4678 329.116H108.563L108.573 329.098ZM64.3183 208.707L74.7375 178.412C77.5049 181.325 85.6405 176.888 88.2901 174.572C87.1514 181.017 85.4133 187.342 83.0985 193.464L82.95 193.846V193.874C82.9039 193.994 82.8604 194.109 82.8143 194.225L82.8015 194.258C82.7605 194.365 82.717 194.473 82.6786 194.575L82.6581 194.621L82.5455 194.908L82.525 194.957C82.4892 195.046 82.4559 195.133 82.4201 195.213L82.3996 195.264L82.3049 195.5L82.2844 195.548L82.1948 195.763L82.1794 195.804L82.1129 195.963C79.03 200.915 76.8542 206.376 75.6873 212.091C71.4582 210.757 67.4901 209.531 64.3183 208.707Z" fill="white"/>
<path d="M173.689 63.1705C176.469 58.3475 176.664 48.8985 175.251 42.9081C173.459 35.3203 171.091 34.3885 170.08 33.9917L169.898 33.9174C169.673 33.0675 169.447 32.2304 169.235 31.4317C168.467 28.5619 167.811 26.0838 167.637 25.3798C166.291 19.9168 163.925 19.1693 160.774 19.7273C160.177 19.8323 159.614 19.9398 159.069 20.0448C157.706 20.3293 156.33 20.5446 154.945 20.6899C153.201 20.8486 151.888 21.1686 151.153 22.2054C150.485 23.1526 150.421 24.576 150.956 26.6803C151.904 30.4128 154.54 40.0153 155.754 43.9219C155.974 44.631 156.13 45.0739 156.245 45.399C156.372 45.7146 156.458 46.0449 156.501 46.3821L156.519 46.4691C156.913 47.7593 157.533 48.7228 158.378 49.3593C159.146 50.4806 160.541 52.096 163.242 54.7789C164.568 56.0921 165.751 58.7008 160.738 66.1734C159.681 67.7504 158.539 69.44 157.372 71.1731C151.968 79.1808 145.852 88.2585 144.487 91.1411C143.463 93.3094 136.861 102.784 132.604 108.452C132.722 108.471 132.833 108.521 132.926 108.595L133.067 108.71C133.18 108.805 133.308 108.925 133.454 109.064C137.66 103.465 144.306 93.9853 145.437 91.5891C146.758 88.791 152.861 79.7491 158.237 71.7696C159.407 70.0365 160.541 68.3469 161.606 66.7673C165.807 60.5056 166.539 56.5811 163.974 54.0416C162.277 52.3622 161.125 51.1283 160.331 50.2016C160.126 49.9609 159.945 49.7382 159.786 49.536C159.53 49.1955 159.31 48.9062 159.146 48.6579C158.921 48.3298 158.74 47.9734 158.608 47.5981C157.976 45.6781 158.337 45.3478 158.339 45.3453C158.379 45.3233 158.425 45.3135 158.47 45.3171C158.726 45.3171 159.266 45.4733 160.236 46.1798C160.702 46.5284 161.148 46.9028 161.573 47.3011C162.287 47.9462 162.981 48.5811 163.91 48.8832C164.364 49.0342 164.84 49.1053 165.318 49.0931C165.662 49.0871 166.005 49.0503 166.342 48.983C166.752 48.8943 167.147 48.7459 167.514 48.5427C167.966 48.297 168.395 48.0108 168.794 47.6877C169.174 47.3851 169.532 47.0558 169.865 46.7021C170.837 45.6371 170.932 43.4944 170.72 41.2365C170.566 39.6006 170.254 37.9085 169.995 36.5056L169.934 36.1805L169.885 35.9245C169.83 35.6285 169.794 35.3292 169.777 35.0285C169.931 35.0884 170.081 35.1585 170.225 35.2384C171.229 35.7965 172.837 37.3529 174.209 43.1744C175.581 48.9958 175.412 58.0685 172.76 62.6688C170.712 66.2016 168.902 69.7088 167.128 73.1033C165.044 77.1123 162.889 81.2569 160.38 85.4477C156.647 91.6838 153.012 97.8355 151.706 100.6C150.872 102.367 146.489 110.751 141.927 118.758L142.286 119.188L142.644 119.619C147.29 111.488 151.806 102.848 152.654 101.048C153.934 98.3245 157.561 92.2009 161.281 85.9878C163.805 81.7689 165.968 77.6089 168.06 73.5872C169.844 70.1824 171.664 66.6829 173.689 63.1705Z" fill="#4C4542"/>
<path d="M87.5631 280.289C87.6959 280.288 87.8246 280.243 87.9292 280.161C88.1493 279.995 88.5794 279.667 91.0908 271.859L90.7477 271.217L90.4021 270.572C88.477 276.621 87.6988 278.561 87.389 279.15C84.6601 278.221 80.2364 276.961 75.5644 275.63C67.5925 273.362 58.5583 270.792 54.5084 268.91C54.0757 268.708 52.7164 268.283 50.8322 267.697C48.5154 266.972 45.3385 265.981 42.7477 265.034C38.854 263.611 38.1781 262.971 38.0629 262.802C38.3727 260.442 41.8671 247.224 46.1807 234.061C50.3714 221.274 53.2642 214.787 55.1612 211.51C55.5042 210.916 55.814 210.429 56.093 210.03C56.353 209.649 56.6405 209.287 56.9532 208.947C57.4652 208.41 57.798 208.251 57.9977 208.215C58.9449 208.041 60.9647 208.394 63.6297 209.07L64.1417 209.203L64.6537 209.336C67.6156 210.127 71.2405 211.244 75.0524 212.46C75.0857 212.288 75.1241 212.116 75.1599 211.948C75.1957 211.779 75.2316 211.604 75.27 211.436C71.4684 210.225 67.9279 209.132 64.9941 208.364L74.9781 179.313C75.4739 179.612 76.0283 179.802 76.6037 179.868C76.8584 179.902 77.1149 179.918 77.3717 179.917C80.5589 179.917 84.9775 177.669 87.5196 175.854C87.5682 175.598 87.6143 175.342 87.6578 175.086C87.7013 174.83 87.75 174.574 87.7961 174.318C85.5893 176.169 80.0162 179.261 76.742 178.826C76.2313 178.776 75.7442 178.587 75.334 178.278C75.1791 178.155 75.0414 178.011 74.9244 177.851C74.9013 177.818 74.8732 177.787 74.8501 177.751C74.7503 177.597 74.6556 177.439 74.5685 177.272C72.4745 173.363 73.8236 166.459 75.2111 161.441C75.4825 160.468 75.7538 159.565 75.9996 158.769C76.0226 158.702 76.0431 158.633 76.0636 158.566L75.4953 158.623H75.4799L74.9269 158.676C74.7017 159.409 74.461 160.212 74.2229 161.057C69.9759 169.641 64.7714 183.329 63.0229 188.022C60.8444 193.853 57.7391 202.565 56.006 208.41C54.9973 209.544 53.6405 211.722 51.7871 215.91C49.8261 220.339 47.6015 226.34 45.1721 233.751C40.925 246.71 37.2873 260.285 37.0005 262.761C36.8521 264.061 39.8805 265.395 50.5097 268.713C52.2146 269.245 53.6841 269.704 54.0553 269.875C58.1794 271.795 67.2572 274.378 75.2649 276.657C80.1289 278.036 84.701 279.342 87.3634 280.271C87.4283 280.29 87.496 280.296 87.5631 280.289ZM64.0367 188.316C66.7682 180.992 70.0885 172.641 73.0453 166.08C72.2082 170.547 72.0213 175.296 73.99 178.309C74.0412 178.386 74.0949 178.455 74.1487 178.524L63.9804 208.079C61.0953 207.352 58.9039 206.981 57.8082 207.181C57.6885 207.203 57.5711 207.237 57.4575 207.281C58.8681 202.719 61.1106 196.155 64.0367 188.316Z" fill="#4C4542"/>
<path d="M138.095 197.455H81.8159C79.2212 201.894 77.3527 206.719 76.2812 211.748L76.1737 212.26C76.1378 212.434 76.0994 212.605 76.0661 212.772C74.3637 221.601 74.9807 231.155 77.9938 240.891C80.6511 249.469 86.1858 260.385 90.845 269.161L91.1906 269.811C91.3058 270.026 91.421 270.244 91.5362 270.456C92.3452 271.969 93.1234 273.411 93.8402 274.752C95.4377 277.711 96.7228 280.092 97.5087 281.695L104.021 245.76C104.408 242.903 102.933 240.87 101.085 238.369L101.039 238.305L100.693 237.824L100.299 237.284C97.629 233.59 94.6236 228.58 95.6681 218.936C95.686 218.762 95.7065 218.588 95.7269 218.411C95.7474 218.235 95.773 218.061 95.7961 217.884C95.9727 216.563 96.221 215.165 96.5641 213.67L97.5881 213.901C97.2476 215.421 96.9967 216.837 96.8201 218.168C96.797 218.342 96.7714 218.522 96.7509 218.68C96.7305 218.839 96.7125 219.031 96.6946 219.205C95.8089 227.548 98.0565 232.161 100.476 235.689C100.619 235.899 100.762 236.104 100.906 236.306C101.049 236.508 101.221 236.744 101.377 236.956L101.889 237.652C103.681 240.09 105.276 242.243 105.135 245.176H105.191L105.076 245.821C105.04 246.093 104.989 246.374 104.922 246.661L90.1129 328.548H108.186C109.031 325.635 110.119 322.483 111.371 319.158L111.642 318.436C111.732 318.2 111.827 317.96 111.916 317.722C114.162 311.885 116.873 305.546 119.678 298.987C121.214 295.403 122.796 291.694 124.373 287.918C124.494 287.634 124.611 287.347 124.732 287.063L125.088 286.203C136.925 257.646 148.084 224.829 138.095 197.455Z" fill="#4C4542"/>
<path d="M82.4252 133.32L82.886 133.576L83.3519 133.832C79.9241 139.487 77.9426 147.062 75.8844 155.697C75.7385 156.316 75.59 156.938 75.4415 157.568L75.8511 157.527L76.1071 157.499L76.4143 157.468L76.7522 157.435L77.405 157.371L81.5574 156.956L82.1334 156.9L82.7068 156.841L88.7279 156.242C88.6767 155.67 88.617 155.099 88.5487 154.529C88.495 154.071 88.4156 153.249 88.326 152.256C88.3106 152.087 88.2953 151.91 88.2799 151.731C88.2646 151.552 88.2492 151.383 88.2338 151.201C87.9394 147.725 87.5887 142.902 87.5887 141.688L88.6358 141.647L89.4038 151.245L89.4447 151.777L89.4857 152.312L89.8697 157.176C89.9132 157.819 89.9465 158.456 89.9695 159.101H89.4422H89.4089C89.3428 159.799 89.1933 160.487 88.9634 161.149C88.3414 163.226 87.2534 166.034 86.8924 166.39L87.6041 167.158C87.9241 166.863 88.4079 165.837 88.8841 164.598C89.0812 164.086 89.2783 163.538 89.4626 162.99C89.6649 162.391 89.8518 161.792 90.0079 161.244C90.0017 165.266 89.6781 169.282 89.0402 173.253C88.9993 173.509 88.9583 173.765 88.9148 174.021C88.8713 174.277 88.8252 174.561 88.7766 174.827C87.6919 180.909 86.0754 186.883 83.9458 192.681C83.7999 193.08 83.6566 193.449 83.5234 193.812C83.1471 194.798 82.8246 195.604 82.5839 196.173C82.5532 196.247 82.5225 196.316 82.4969 196.38H137.793C137.792 196.365 137.792 196.349 137.793 196.334C134.608 183.805 132.627 172.782 131.872 163.392C132.041 163.593 132.235 163.773 132.448 163.927C132.603 164.042 132.792 164.103 132.985 164.099C133.031 164.096 133.076 164.09 133.121 164.081C133.203 164.058 133.287 164.04 133.377 164.019C133.889 163.904 134.531 163.763 134.898 163.139C135.018 162.927 135.096 162.694 135.125 162.452C135.381 162.941 135.417 162.964 135.497 163.034C136.69 164.024 137.619 164.355 138.333 164.04C138.51 163.958 138.669 163.841 138.798 163.695C138.928 163.549 139.025 163.378 139.086 163.192C139.233 163.417 139.405 163.625 139.598 163.812C140.166 164.36 140.675 164.521 141.072 164.521C141.343 164.521 141.609 164.447 141.84 164.306C142.813 163.704 143.082 162.066 142.508 160.228C140.366 153.372 136.364 151.567 132.688 151.242C132.514 151.227 132.34 151.214 132.176 151.206C132.012 151.199 131.826 151.191 131.664 151.186C132.038 144.468 133.379 139.374 135.525 136.643C136.293 135.67 138.374 133.315 140.581 130.844C142.629 128.54 144.751 126.157 145.765 124.92C144.741 123.663 143.486 122.14 142.163 120.545L141.804 120.113L141.397 119.706C138.049 115.689 134.419 111.434 132.839 109.896C132.734 109.793 132.634 109.699 132.547 109.622C132.291 109.891 131.859 110.451 131.467 110.958C130.996 111.57 130.443 112.297 129.788 113.062C129.365 113.574 128.907 114.086 128.416 114.598C126.268 116.833 123.472 118.95 120.175 119.14C119.704 119.165 119.215 119.222 118.718 119.296C118.67 119.124 118.624 118.955 118.578 118.784C118.531 118.612 118.485 118.443 118.439 118.272C117.359 114.191 116.873 110.932 117.356 110.461C121.025 106.877 121.368 100.518 120.065 94.7993L119.942 94.2873C119.898 94.1158 119.855 93.9443 119.809 93.7753C119.981 93.7017 120.145 93.6099 120.298 93.5014C122.602 91.8195 122.387 86.4844 122.223 84.5747L118.255 86.2412C118.237 86.0569 118.214 85.8777 118.194 85.6985C118.173 85.5193 118.145 85.3376 118.119 85.1584C117.095 78.318 113.306 73.6972 107.713 72.6553C101.666 71.5289 95.4505 74.9593 92.6089 80.9804C91.9382 82.3961 91.27 84.0678 90.4969 86.0032C86.7926 95.2704 81.1938 109.279 64.9916 121.649C64.901 121.716 64.8297 121.806 64.7848 121.91C64.7399 122.014 64.7229 122.128 64.7356 122.24C64.774 122.785 64.8662 123.799 82.4252 133.32ZM91.4774 86.3795C92.2454 84.462 92.9058 82.7955 93.5638 81.4156C96.2082 75.8195 101.955 72.6374 107.534 73.6742C112.728 74.6419 116.238 79.0502 117.134 85.5654C117.157 85.7446 117.177 85.9264 117.198 86.1081C117.218 86.2899 117.236 86.4716 117.251 86.656C117.251 86.7584 117.272 86.8582 117.28 86.9632C117.246 87.0373 117.202 87.1062 117.149 87.168C117.03 87.3069 116.9 87.4362 116.76 87.5545C116.639 87.6603 116.503 87.7704 116.353 87.8848C114.663 89.1904 111.2 91.1641 110.163 91.4534L109.623 91.6044L109.81 92.1318C109.842 92.2165 109.887 92.2958 109.943 92.3673C110.025 92.4953 110.227 92.8153 110.291 92.9203C110.49 93.4784 110.677 94.0364 110.857 94.5945C110.931 94.8198 111.002 95.0476 111.072 95.2729C111.141 95.4982 111.21 95.7388 111.276 95.9718C113.696 104.323 113.726 112.571 112.843 119.57C112.818 119.759 112.794 119.946 112.769 120.133L112.692 120.696C112.382 122.867 111.991 124.907 111.561 126.779C111.517 126.968 111.471 127.155 111.427 127.342C111.384 127.529 111.338 127.718 111.292 127.903C111.246 128.087 111.22 128.202 111.182 128.348C109.819 133.823 107.858 139.132 105.335 144.179C98.9526 140.918 91.0166 136.755 83.9254 132.931L83.462 132.675L83.0012 132.419C74.3202 127.706 67.1036 123.556 65.9106 122.248C82.1154 109.765 87.7372 95.703 91.4774 86.3795ZM118.921 94.5049C118.962 94.6764 119.005 94.848 119.043 95.0169C120.29 100.426 120.009 106.401 116.624 109.701C116.158 110.154 115.754 111.258 116.762 115.812C116.96 116.71 117.185 117.604 117.408 118.449C117.454 118.62 117.497 118.789 117.543 118.961L117.605 119.191C117.459 119.27 117.344 119.396 117.28 119.549C117.24 119.631 117.21 119.717 117.19 119.805C117.167 119.905 117.121 120.154 117.039 120.622C116.901 121.39 116.527 123.438 116.389 123.776C115.621 124.936 114.249 125.888 112.697 126.446C113.112 124.577 113.486 122.552 113.78 120.404C113.803 120.218 113.829 120.031 113.854 119.841L113.923 119.281C114.799 111.99 114.691 103.409 111.991 94.7379C111.927 94.5305 111.863 94.3257 111.794 94.1184C111.724 93.911 111.668 93.7318 111.604 93.5398C111.489 93.1993 111.374 92.8614 111.248 92.5158C111.205 92.4082 111.148 92.3067 111.079 92.2137C112.378 91.6122 113.637 90.9282 114.848 90.1657C115.703 89.6358 116.345 89.1929 116.834 88.8192C117.134 89.4182 117.42 90.0505 117.689 90.711C118.12 91.7777 118.486 92.8694 118.785 93.9801C118.831 94.1542 118.869 94.3283 118.921 94.5049ZM132.087 152.276C132.261 152.276 132.437 152.299 132.599 152.315C135.97 152.632 139.511 154.319 141.464 160.563C141.958 162.145 141.635 163.195 141.246 163.435C140.924 163.635 140.478 163.251 140.291 163.08C139.846 162.65 139.472 161.887 139.104 161.014C138.717 158.935 137.381 156.406 135.694 155.464L135.182 156.375C136.395 157.084 137.102 158.84 137.785 160.538C137.89 160.794 137.998 161.05 138.103 161.306C138.16 161.632 138.184 161.963 138.174 162.294C138.154 162.714 138.044 163.018 137.888 163.087C137.811 163.123 137.376 163.241 136.201 162.283C136.093 162.102 135.778 161.49 135.497 160.947C135.118 160.218 134.649 159.311 134.263 158.607C133.6 157.402 133.387 157.059 132.926 157.153C132.856 157.167 132.789 157.195 132.73 157.236C132.67 157.276 132.62 157.328 132.581 157.389C132.527 157.471 132.494 157.565 132.486 157.663C132.48 157.818 132.52 157.972 132.601 158.106C132.66 158.231 132.745 158.395 132.857 158.618C133.241 159.294 133.564 160.004 133.822 160.737C134.163 161.897 134.078 162.394 133.961 162.609C133.843 162.824 133.556 162.898 133.113 162.998L132.965 163.031C132.928 163.003 132.893 162.972 132.86 162.939C132.658 162.737 132.468 162.524 132.289 162.301L132.061 162.025C131.933 161.864 131.805 161.728 131.71 161.6C131.557 159.24 131.484 156.992 131.493 154.857C131.493 153.958 131.518 153.088 131.552 152.238C131.738 152.261 131.925 152.269 132.087 152.276Z" fill="#4C4542"/>
<path d="M56.6614 248.177H56.7049C59.5516 248.202 61.2898 250.757 61.8735 255.77C61.8991 255.99 61.9657 256.571 62.4546 256.745C62.9974 256.939 63.4786 256.489 64.2466 255.749C65.5266 254.515 67.6489 252.477 70.9436 252.337C71.1686 252.912 71.4599 253.459 71.8114 253.967C72.3977 254.853 72.8201 255.503 72.8201 259.768C72.8201 260.024 72.8201 260.849 73.4089 261.194C73.5775 261.292 73.7696 261.341 73.9644 261.338C74.6146 261.338 75.4492 260.867 76.6498 260.188C77.8056 259.516 79.0027 258.917 80.2338 258.396L80.4898 258.301C81.3193 257.992 81.8133 257.789 82.0489 257.577L81.35 256.791C80.9559 256.998 80.5458 257.174 80.1238 257.316L79.8421 257.423C78.5737 257.965 77.3407 258.587 76.1506 259.284C75.3058 259.763 74.2588 260.352 73.9644 260.308C73.8984 260.146 73.872 259.971 73.8876 259.796C73.8876 255.206 73.3756 254.42 72.7049 253.417C72.3283 252.877 72.0309 252.285 71.8217 251.661L71.6988 251.307H71.325C67.398 251.307 64.8866 253.722 63.5375 255.019C63.3378 255.211 63.11 255.432 62.9308 255.585C62.0988 248.658 59.1087 247.176 56.7407 247.153H56.6614C52.1583 247.153 46.575 252.529 46.3292 254.354L47.3686 254.495C47.5145 253.394 52.5372 248.177 56.6614 248.177Z" fill="#4C4542"/>
<path d="M44.1173 257.06L45.1413 257.29C45.7276 254.682 49.8543 244.731 53.4972 235.953C57.2194 226.977 59.0652 222.467 59.4978 220.849C61.1695 220.997 63.7423 221.932 66.2357 222.84C69.0953 223.88 72.0418 224.947 74.1359 225.06C74.3125 225.06 74.4866 225.075 74.6479 225.06L74.6146 224.01C74.4533 224.01 74.2793 224.01 74.1026 224.01C72.1852 223.887 69.3461 222.853 66.5941 221.852C63.6629 220.787 60.893 219.779 59.0729 219.779H58.502L58.5481 220.329C58.4687 221.207 55.3122 228.818 52.5244 235.538C48.8661 244.367 44.7189 254.362 44.1173 257.06Z" fill="#4C4542"/>
<path d="M63.1484 229.609C60.3324 229.609 58.182 231.045 57.2271 233.551C56.0981 236.526 56.9276 240.269 59.1625 242.255C60.2206 243.204 61.5944 243.723 63.0153 243.712C64.1442 243.712 65.4857 243.412 67.0473 242.598C70.0501 241.034 71.5631 237.914 70.8079 234.839C70.1909 232.307 67.8537 229.609 63.1484 229.609Z" fill="#4C4542"/>
<path d="M137.256 16.5666L136.772 17.4979L146.032 22.3123L146.517 21.3811L137.256 16.5666Z" fill="#4C4542"/>
<path d="M144.097 25.1114L135.023 26.7785L135.212 27.8108L144.287 26.1437L144.097 25.1114Z" fill="#4C4542"/>
<path d="M147.889 28.176L145.752 35.414L146.759 35.7112L148.896 28.4732L147.889 28.176Z" fill="#4C4542"/>
<path d="M150.899 9.2876L149.857 18.4238L150.899 18.5428L151.942 9.4066L150.899 9.2876Z" fill="#4C4542"/>
</svg>
